<svg width="32" height="32" fill="none" xmlns="http://www.w3.org/2000/svg"><path fill-rule="evenodd" clip-rule="evenodd" d="M18.96 2.96c.92-.92 2.22-1.293 3.707-1.293h2.667c1.487 0 2.786.372 3.707 1.293.92.92 1.293 2.22 1.293 3.707v2.666c0 1.488-.373 2.787-1.293 3.707-.92.92-2.22 1.293-3.707 1.293h-2.667c-1.488 0-2.787-.372-3.707-1.293-.92-.92-1.293-2.22-1.293-3.707V6.667c0-1.488.372-2.787 1.293-3.707zm1.414 1.414c-.413.413-.707 1.113-.707 2.293v2.666c0 1.18.294 1.88.707 2.293.413.413 1.114.707 2.293.707h2.667c1.179 0 1.88-.294 2.293-.707.413-.413.707-1.114.707-2.293V6.667c0-1.18-.294-1.88-.707-2.293-.413-.413-1.114-.707-2.293-.707h-2.667c-1.18 0-1.88.294-2.293.707zM2.96 18.96c.92-.92 2.22-1.293 3.707-1.293h2.667c1.487 0 2.786.372 3.707 1.292.92.92 1.293 2.22 1.293 3.708v2.666c0 1.488-.373 2.787-1.293 3.707-.92.92-2.22 1.293-3.707 1.293H6.667c-1.487 0-2.787-.372-3.707-1.293-.92-.92-1.293-2.22-1.293-3.707v-2.666c0-1.488.373-2.787 1.293-3.708zm1.414 1.414c-.413.413-.707 1.113-.707 2.293v2.666c0 1.18.294 1.88.707 2.293.413.413 1.114.707 2.293.707h2.667c1.179 0 1.88-.294 2.293-.707.412-.413.707-1.114.707-2.293v-2.666c0-1.18-.294-1.88-.707-2.293-.413-.413-1.114-.707-2.293-.707H6.667c-1.18 0-1.88.294-2.293.707zM8 3.667a4.333 4.333 0 100 8.666 4.333 4.333 0 000-8.666zM1.667 8a6.333 6.333 0 1112.667 0A6.333 6.333 0 011.667 8zM24 19.667a4.333 4.333 0 100 8.666 4.333 4.333 0 000-8.666zM17.667 24a6.333 6.333 0 1112.667 0 6.333 6.333 0 01-12.667 0z" fill="#A4A4A4"/></svg>