<svg width="38" height="38" fill="none" xmlns="http://www.w3.org/2000/svg"><g filter="url(#filter0_d_298_24)" fill-rule="evenodd" clip-rule="evenodd" fill="#A4A4A4"><path d="M5.473 3.913A6.328 6.328 0 0111 .667h12a1 1 0 011 1V15a3.674 3.674 0 01-3.666 3.667H19a1 1 0 110-2h1.334c.914 0 1.666-.753 1.666-1.667V2.667H11a4.328 4.328 0 00-3.78 2.22 1 1 0 11-1.747-.974z"/><path d="M22 5.667a1 1 0 011-1h2.454c1.325 0 2.53.717 3.184 1.844l.004.006 2.28 3.987A1 1 0 0130.054 12h-1.72a.337.337 0 00-.334.333v4c0 .181.153.334.334.334h4a1 1 0 011 1v4c0 2.765-2.235 5-5 5H27a1 1 0 01-1-1c0-.915-.752-1.667-1.666-1.667-.915 0-1.667.752-1.667 1.667a1 1 0 01-1 1h-5.333a1 1 0 01-1-1c0-.915-.753-1.667-1.667-1.667S12 24.752 12 25.667a1 1 0 01-1 1H9.667c-2.766 0-5-2.235-5-5a1 1 0 112 0c0 1.66 1.339 3 3 3h.472A3.678 3.678 0 0113.667 22c1.672 0 3.09 1.13 3.528 2.667h3.611A3.678 3.678 0 0124.334 22c1.672 0 3.09 1.13 3.527 2.667h.473c1.66 0 3-1.34 3-3v-3h-3A2.337 2.337 0 0126 16.333v-4A2.337 2.337 0 0128.33 10l-1.421-2.485-.002-.002a1.688 1.688 0 00-1.453-.846H24V15a3.674 3.674 0 01-3.666 3.667H19a1 1 0 110-2h1.334c.914 0 1.666-.753 1.666-1.667V5.667z"/><path d="M13.667 24a1.667 1.667 0 100 3.333 1.667 1.667 0 000-3.333zM10 25.667a3.667 3.667 0 117.333 0 3.667 3.667 0 01-7.333 0zM24.334 24a1.667 1.667 0 100 3.333 1.667 1.667 0 000-3.333zm-3.667 1.667a3.667 3.667 0 117.333 0 3.667 3.667 0 01-7.333 0zM28.333 12a.337.337 0 00-.333.333v4c0 .181.152.334.333.334h3v-1.402L29.473 12h-1.14zM26 12.333A2.337 2.337 0 0128.333 10h1.72a1 1 0 01.87.505l2.28 4a1 1 0 01.13.495v2.667a1 1 0 01-1 1h-4A2.337 2.337 0 0126 16.333v-4zM4.667 9.667a1 1 0 011-1h8a1 1 0 110 2h-8a1 1 0 01-1-1zm0 4a1 1 0 011-1H11a1 1 0 110 2H5.667a1 1 0 01-1-1zm0 4a1 1 0 011-1h2.667a1 1 0 110 2H5.667a1 1 0 01-1-1z"/></g><defs><filter id="filter0_d_298_24" x=".667" y=".667" width="36.667" height="36.667" filterUnits="userSpaceOnUse" color-interpolation-filters="sRGB"><feFlood flood-opacity="0" result="BackgroundImageFix"/><feColorMatrix in="SourceAlpha" values="0 0 0 0 0 0 0 0 0 0 0 0 0 0 0 0 0 0 127 0" result="hardAlpha"/><feOffset dy="4"/><feGaussianBlur stdDeviation="2"/><feComposite in2="hardAlpha" operator="out"/><feColorMatrix values="0 0 0 0 0 0 0 0 0 0 0 0 0 0 0 0 0 0 0.25 0"/><feBlend in2="BackgroundImageFix" result="effect1_dropShadow_298_24"/><feBlend in="SourceGraphic" in2="effect1_dropShadow_298_24" result="shape"/></filter></defs></svg>